# xmcd CD database file
#
# Track frame offsets:
#	150
#	13850
#	27020
#	38566
#	48453
#	58127
#	69034
#	85443
#	94220
#	119049
#	130195
#	138306
#	148668
#	172910
#	186280
#	207544
#	234032
#	252296
#	275497
#	292943
#
# Disc length: 4279 seconds
#
# Revision: 0
# Processed by: cddbd v1.5.2PL0 Copyright (c) Steve Scherf et al.
# Submitted via: CDex 1.70beta2
#
DISCID=2110b514
DTITLE=Second Joise-Brothers ChirchClub-Crew - 177 - Arbeitsdisc für Konzert Februar 1999
DYEAR=1998
DGENRE=Rhythmic Soul
TTITLE0=Give me some Lovin - Spencer Davis-Group
TTITLE1=Soulman
TTITLE2=Dancing in the Street
TTITLE3=Heartbreak-Hotel - Elwis Presley
TTITLE4=Return the Sender - Elwis Presley
TTITLE5=Vooley booley
TTITLE6=Hale hale rack'Än Roll
TTITLE7=I'm raedy - Fets Domino
TTITLE8=You've got a Friend - Carol King
TTITLE9=Chalehous-Rock - Elwis Preslay
TTITLE10=Baby, let me be your Taddybeer - Elwis Presley
TTITLE11=I'm Eavel - Elwis Preslay
TTITLE12=Blues - Second Joise Brothers Chirchclub-Crew
TTITLE13=Lets Stick together - Brian Ferry
TTITLE14=Sweet Home Alabama
TTITLE15=Say goodbye - Second Joise-Brothers Chirchclub-Crew
TTITLE16=I said Hey, Hey, Hey
TTITLE17=Oh hapy Day - Edd Hawpkins-Singers
TTITLE18=Put a little Love in your Heart
TTITLE19=Let it be
EXTD=YEAR: 1998
EXTT0=
EXTT1=
EXTT2=
EXTT3=
EXTT4=
EXTT5=
EXTT6=
EXTT7=
EXTT8=
EXTT9=
EXTT10=
EXTT11=
EXTT12=
EXTT13=
EXTT14=
EXTT15=
EXTT16=
EXTT17=
EXTT18=
EXTT19=
PLAYORDER=
